<svg width="120" height="84" viewBox="0 0 120 84" fill="none" xmlns="http://www.w3.org/2000/svg">
<path d="M78.0573 28.7064C81.9409 21.3284 83.9933 16.7224 81.8989 14.6756C79.5301 16.4116 78.9589 17.0528 77.8333 20.3008C77.8333 20.3008 76.5733 23.91 74.7533 27.9336C73.9133 29.8208 72.7933 32.184 71.1497 34.2028C70.9122 34.4385 70.6047 34.5908 70.2733 34.6368C69.4753 34.788 69.0469 35.1016 68.3581 35.4208C67.8205 35.67 67.4621 35.642 67.4593 35.7876C67.468 35.954 67.542 36.1102 67.6652 36.2224C67.7883 36.3346 67.9508 36.3937 68.1173 36.3868C68.4883 36.3857 68.8578 36.3396 69.2177 36.2496C68.7971 36.9175 68.2315 37.4821 67.5629 37.9016C66.2133 38.6576 65.8829 39.324 67.6553 40.0576C68.7753 40.5168 70.4189 40.1276 72.3257 37.938C72.8857 37.308 73.6949 35.9388 74.2857 35.054C76.0273 32.422 77.2789 30.182 78.0573 28.7064Z" fill="#9E6767"/>
<path d="M82.9602 14.4096C82.1243 14.3417 81.2903 14.562 80.597 15.034C79.3762 15.832 78.8134 17.2152 78.0378 19.0632C77.097 21.3032 76.593 22.9132 76.593 22.9132C76.593 22.9132 77.657 24.8564 80.597 24.6716L83.0834 19.9116L82.9602 14.4096Z" fill="#E0E0E0"/>
<path d="M88.4789 71.6724C88.6533 71.177 88.7396 70.6548 88.7337 70.1296V68.01H91.3209V70.4096V70.474H91.3069C91.1837 71.0172 88.1653 72.4312 88.4789 71.6724Z" fill="#9E6767"/>
<path d="M91.8782 71.342C91.951 71.3252 92.1582 71.93 92.0798 72.182C91.8639 72.6234 91.5343 72.9993 91.125 73.2712C90.6985 73.596 90.355 74.0173 90.1226 74.5004C89.7406 75.1435 89.2274 75.6988 88.6163 76.13C88.2129 76.4192 87.7524 76.6188 87.2656 76.7154C86.7788 76.812 86.277 76.8033 85.7938 76.69C84.7578 76.4268 84.6319 76.1608 84.6151 75.7744L91.8782 71.342Z" fill="#37474F"/>
<path d="M86.7066 76.2756C87.7162 76.0858 88.638 75.5763 89.3358 74.8224C89.7838 74.3128 90.0806 73.7024 90.4026 73.2936C90.7246 72.8848 91.6626 72.1736 91.8474 71.6976C91.9454 71.4372 91.8474 71.0368 91.6458 70.5776C91.3658 69.9532 91.321 69.7936 91.321 69.7936C91.2317 69.8313 91.1564 69.8959 91.1054 69.9784C91.0234 70.1531 90.9605 70.3362 90.9178 70.5244C90.9009 70.6407 90.8397 70.746 90.747 70.8184C90.6679 70.853 90.5808 70.8656 90.495 70.8548C90.2878 70.8548 89.935 70.8044 89.8286 71.0424C89.8146 70.9395 89.7798 70.8405 89.7264 70.7515C89.6729 70.6625 89.602 70.5852 89.5178 70.5244C89.2014 70.3004 88.3558 69.914 88.1178 70.502C87.8378 71.2132 87.3926 72.182 86.7178 72.742C85.8918 73.4392 84.9258 74.0804 84.6206 74.884C84.5047 75.1666 84.5047 75.4834 84.6206 75.766C85.0238 76.2 86.1718 76.3512 86.7066 76.2756Z" fill="#CCCCCC"/>
<path opacity="0.5" d="M86.7066 76.2756C87.7162 76.0858 88.638 75.5763 89.3358 74.8224C89.7838 74.3128 90.0806 73.7024 90.4026 73.2936C90.7246 72.8848 91.6626 72.1736 91.8474 71.6976C91.9454 71.4372 91.8474 71.0368 91.6458 70.5776C91.3658 69.9532 91.321 69.7936 91.321 69.7936C91.2317 69.8313 91.1564 69.8959 91.1054 69.9784C91.0234 70.1531 90.9605 70.3362 90.9178 70.5244C90.9009 70.6407 90.8397 70.746 90.747 70.8184C90.6679 70.853 90.5808 70.8656 90.495 70.8548C90.2878 70.8548 89.935 70.8044 89.8286 71.0424C89.8146 70.9395 89.7798 70.8405 89.7264 70.7515C89.6729 70.6625 89.602 70.5852 89.5178 70.5244C89.2014 70.3004 88.3558 69.914 88.1178 70.502C87.8378 71.2132 87.3926 72.182 86.7178 72.742C85.8918 73.4392 84.9258 74.0804 84.6206 74.884C84.5047 75.1666 84.5047 75.4834 84.6206 75.766C85.0238 76.2 86.1718 76.3512 86.7066 76.2756Z" fill="black"/>
<path d="M89.3498 71.3896C88.9114 71.1329 88.4102 71.003 87.9022 71.0144C87.8383 71.0691 87.7862 71.1364 87.7491 71.212C87.712 71.2875 87.6908 71.3699 87.6866 71.454C87.6866 71.454 88.1122 71.3084 89.1314 71.8012C89.186 71.8289 89.2492 71.8348 89.3079 71.8176C89.3667 71.8004 89.4167 71.7615 89.4478 71.7088C89.4478 71.692 89.4618 71.6752 89.4674 71.6556C89.4816 71.6045 89.4776 71.5501 89.4561 71.5016C89.4347 71.4531 89.3971 71.4135 89.3498 71.3896Z" fill="#F5F5F5"/>
<path d="M88.9579 72.2996C88.5602 71.9437 88.0409 71.7542 87.5075 71.7704C87.4394 71.8126 87.3812 71.869 87.3367 71.9356C87.2923 72.0023 87.2627 72.0777 87.2499 72.1568C87.2499 72.1568 87.7539 72.0476 88.6779 72.6608C88.7063 72.6802 88.7386 72.6931 88.7726 72.6987C88.8065 72.7042 88.8413 72.7022 88.8744 72.6929C88.9075 72.6835 88.9381 72.667 88.9642 72.6446C88.9902 72.6221 89.011 72.5942 89.0251 72.5628C89.0429 72.5174 89.046 72.4676 89.0339 72.4203C89.0219 72.3731 88.9953 72.3309 88.9579 72.2996Z" fill="#F5F5F5"/>
<path d="M88.3139 73.5008C88.3418 73.4581 88.3545 73.4072 88.3499 73.3564C88.3453 73.3056 88.3237 73.2578 88.2887 73.2208C88.1216 73.0204 87.9145 72.8571 87.6807 72.7414C87.4468 72.6256 87.1913 72.5601 86.9307 72.5488C86.8518 72.5731 86.7792 72.6146 86.7182 72.6703C86.6572 72.726 86.6093 72.7944 86.5779 72.8708C86.8439 72.8784 87.1055 72.9408 87.3464 73.054C87.5873 73.1672 87.8022 73.3288 87.9779 73.5288C87.9989 73.5517 88.0244 73.57 88.0528 73.5825C88.0813 73.5951 88.112 73.6015 88.1431 73.6015C88.1741 73.6015 88.2049 73.5951 88.2333 73.5825C88.2618 73.57 88.2873 73.5517 88.3083 73.5288L88.3139 73.5008Z" fill="#F5F5F5"/>
<path d="M78.9113 68.7408V66.6156H81.504V69.0208V69.0852H81.49C81.42 69.3904 78.9113 70.1212 78.9113 70.1212V68.7408Z" fill="#9E6767"/>
<path d="M82.0586 69.676C82.1314 69.6592 82.3526 70.2612 82.2602 70.502C82.0453 70.944 81.7168 71.3208 81.3082 71.594C80.8805 71.9171 80.5359 72.3376 80.303 72.8204C79.9229 73.4656 79.4093 74.0222 78.7966 74.4528C78.3936 74.7426 77.9331 74.9426 77.4462 75.0392C76.9593 75.1358 76.4573 75.1268 75.9742 75.0128C74.9382 74.7524 74.8122 74.4864 74.7954 74.0972L82.0586 69.676Z" fill="#37474F"/>
<path d="M76.887 74.6096C77.8964 74.4193 78.818 73.9099 79.5162 73.1564C79.9642 72.6468 80.261 72.0364 80.583 71.6276C80.905 71.2188 81.843 70.5076 82.0278 70.0288C82.1258 69.7684 82.0278 69.368 81.8262 68.9088C81.5462 68.2844 81.5014 68.1248 81.5014 68.1248C81.4115 68.163 81.336 68.2287 81.2858 68.3124C81.203 68.4865 81.141 68.6698 81.101 68.8584C81.0798 68.97 81.0179 69.0698 80.9274 69.1384C80.849 69.1758 80.7612 69.1885 80.6754 69.1748C80.4682 69.1748 80.1154 69.1244 80.009 69.3652C79.9952 69.2619 79.9605 69.1625 79.907 69.0729C79.8536 68.9834 79.7826 68.9057 79.6982 68.8444C79.3818 68.6204 78.5362 68.234 78.2982 68.822C78.0182 69.536 77.573 70.502 76.8982 71.062C76.075 71.7592 75.1062 72.4004 74.801 73.2012C74.6854 73.4839 74.6854 73.8006 74.801 74.0832C75.2042 74.5452 76.3522 74.6824 76.887 74.6096Z" fill="#CCCCCC"/>
<path opacity="0.5" d="M76.887 74.6096C77.8964 74.4193 78.818 73.9099 79.5162 73.1564C79.9642 72.6468 80.261 72.0364 80.583 71.6276C80.905 71.2188 81.843 70.5076 82.0278 70.0288C82.1258 69.7684 82.0278 69.368 81.8262 68.9088C81.5462 68.2844 81.5014 68.1248 81.5014 68.1248C81.4115 68.163 81.336 68.2287 81.2858 68.3124C81.203 68.4865 81.141 68.6698 81.101 68.8584C81.0798 68.97 81.0179 69.0698 80.9274 69.1384C80.849 69.1758 80.7612 69.1885 80.6754 69.1748C80.4682 69.1748 80.1154 69.1244 80.009 69.3652C79.9952 69.2619 79.9605 69.1625 79.907 69.0729C79.8536 68.9834 79.7826 68.9057 79.6982 68.8444C79.3818 68.6204 78.5362 68.234 78.2982 68.822C78.0182 69.536 77.573 70.502 76.8982 71.062C76.075 71.7592 75.1062 72.4004 74.801 73.2012C74.6854 73.4839 74.6854 73.8006 74.801 74.0832C75.2042 74.5452 76.3522 74.6824 76.887 74.6096Z" fill="black"/>
<path d="M79.5303 69.7208C79.092 69.4637 78.5907 69.3338 78.0827 69.3456C78.0191 69.4007 77.9672 69.468 77.9302 69.5435C77.8932 69.619 77.8717 69.7012 77.8671 69.7852C77.8671 69.7852 78.2927 69.6424 79.3119 70.1324C79.3663 70.1608 79.4297 70.167 79.4887 70.1498C79.5476 70.1326 79.5977 70.0932 79.6283 70.04C79.637 70.0241 79.6435 70.0072 79.6479 69.9896C79.6622 69.9381 79.6583 69.8832 79.6369 69.8343C79.6154 69.7853 79.5778 69.7452 79.5303 69.7208Z" fill="#F5F5F5"/>
<path d="M79.1382 70.6336C78.7413 70.2762 78.2218 70.0856 77.6878 70.1016C77.6203 70.1451 77.5625 70.2021 77.5181 70.2691C77.4738 70.3361 77.4439 70.4116 77.4302 70.4908C77.4302 70.4908 77.9342 70.3816 78.8582 70.9948C78.8868 71.0137 78.9191 71.0262 78.9529 71.0315C78.9868 71.0368 79.0214 71.0347 79.0543 71.0254C79.0873 71.0161 79.1178 70.9998 79.1439 70.9776C79.17 70.9554 79.191 70.9279 79.2054 70.8968C79.2242 70.8516 79.2277 70.8015 79.2156 70.754C79.2035 70.7066 79.1764 70.6643 79.1382 70.6336Z" fill="#F5F5F5"/>
<path d="M78.4942 71.8348C78.5221 71.7921 78.5348 71.7412 78.5302 71.6904C78.5257 71.6396 78.5041 71.5918 78.469 71.5548C78.3025 71.3542 78.096 71.1906 77.8626 71.0744C77.6293 70.9582 77.3742 70.892 77.1138 70.88C77.0344 70.904 76.9613 70.9453 76.8998 71.001C76.8383 71.0567 76.79 71.1253 76.7582 71.202C77.0243 71.2096 77.2859 71.272 77.5268 71.3852C77.7676 71.4984 77.9826 71.66 78.1582 71.86C78.179 71.8833 78.2044 71.9019 78.2329 71.9147C78.2614 71.9275 78.2922 71.9341 78.3234 71.9341C78.3546 71.9341 78.3855 71.9275 78.414 71.9147C78.4424 71.9019 78.4679 71.8833 78.4886 71.86L78.4942 71.8348Z" fill="#F5F5F5"/>
<path d="M93.3202 2.71959C93.0864 2.16239 92.6412 1.72065 92.0822 1.49127C91.5231 1.26188 90.8959 1.26358 90.3382 1.49599C90.2591 1.5301 90.1824 1.56939 90.1086 1.61359C90.1157 1.52004 90.111 1.42597 90.0946 1.33359C90.0678 1.20628 90.0154 1.08576 89.9405 0.979385C89.8656 0.873012 89.7698 0.783017 89.6589 0.714892C89.5481 0.646766 89.4245 0.601941 89.2958 0.583148C89.1671 0.564356 89.0359 0.571991 88.9102 0.605589L89.249 2.22119C88.3624 1.52061 87.2653 1.13979 86.1354 1.14039H84.9846C83.6479 1.14039 82.3659 1.67139 81.4208 2.61657C80.4756 3.56176 79.9446 4.8437 79.9446 6.18039V7.02039C79.9446 8.35114 80.4732 9.62739 81.4142 10.5684C82.3552 11.5094 83.6314 12.038 84.9622 12.038H86.1718C87.5025 12.038 88.7788 11.5094 89.7198 10.5684C90.6607 9.62739 91.1894 8.35114 91.1894 7.02039V6.18039C91.1894 6.04599 91.1894 5.90039 91.1698 5.78279C91.4808 5.87268 91.8141 5.84374 92.105 5.70159C92.6612 5.46682 93.1015 5.02098 93.3293 4.46192C93.5571 3.90285 93.5538 3.27624 93.3202 2.71959Z" fill="#263238"/>
<path d="M91.6737 30.1904C92.6677 35.4936 91.3713 50.4932 91.3713 50.4932C91.4329 51.2296 92.4157 52.8732 92.3485 55.8132C92.2617 59.6548 91.4861 68.7492 91.4861 68.7492C91.0302 68.9495 90.5378 69.0529 90.0399 69.0529C89.542 69.0529 89.0495 68.9495 88.5937 68.7492C88.5937 68.7492 86.7513 54.9984 86.2697 51.1932C85.8525 47.8752 85.0489 40.5756 85.0489 40.5756L82.7641 51.1764C82.7641 51.1764 83.4809 53.6432 83.4977 55.0656C83.5341 58.0028 81.5377 67.1056 81.5377 67.1056C81.5377 67.1056 80.6137 67.4444 78.8609 67.1868C78.8609 67.1868 78.0937 53.3632 77.8921 50.6668C77.5505 46.1392 78.7545 32.016 79.5721 29.3364L91.6737 30.1904Z" fill="#CCCCCC"/>
<path opacity="0.3" d="M91.6737 30.1904C92.6677 35.4936 91.3713 50.4932 91.3713 50.4932C91.4329 51.2296 92.4157 52.8732 92.3485 55.8132C92.2617 59.6548 91.4861 68.7492 91.4861 68.7492C91.0302 68.9495 90.5378 69.0529 90.0399 69.0529C89.542 69.0529 89.0495 68.9495 88.5937 68.7492C88.5937 68.7492 86.7513 54.9984 86.2697 51.1932C85.8525 47.8752 85.0489 40.5756 85.0489 40.5756L82.7641 51.1764C82.7641 51.1764 83.4809 53.6432 83.4977 55.0656C83.5341 58.0028 81.5377 67.1056 81.5377 67.1056C81.5377 67.1056 80.6137 67.4444 78.8609 67.1868C78.8609 67.1868 78.0937 53.3632 77.8921 50.6668C77.5505 46.1392 78.7545 32.016 79.5721 29.3364L91.6737 30.1904Z" fill="white"/>
<path opacity="0.2" d="M85.049 40.5644L84.3742 36.3644C84.3742 36.3644 81.5238 35.7764 80.2302 34.5584C80.2302 34.5584 81.5882 36.2384 83.5902 36.7984L84.3602 40.0296L83.0358 49.8436L85.049 40.5644Z" fill="black"/>
<path d="M87.5773 14.5832L89.4225 14.6756L91.2397 16.7364C91.3825 17.9124 91.7997 19.4272 91.4245 20.5472L90.1617 25.7244C90.1617 25.7244 91.3349 28.0736 91.6737 30.2044C87.0201 32.8028 80.9833 31.2376 79.5833 29.342C79.5245 28.9416 79.8829 25.7972 80.1069 23.742C79.2865 21.6868 79.0709 20.382 79.4153 19.024C80.0565 16.504 81.9549 14.3256 83.0553 14.4152L87.5773 14.5832Z" fill="#818181"/>
<path d="M88.9437 17.3636C88.945 18.9779 89.2469 20.5779 89.8341 22.0816C90.2401 23 89.1201 25.1924 88.0001 26.122C86.8801 27.0516 88.9969 27.5472 89.5233 28.082C90.0497 28.6168 90.7413 31.372 85.9897 31.5624C87.9737 31.6097 89.9358 31.1387 91.6821 30.196C91.3433 28.0792 90.1701 25.716 90.1701 25.716L91.4329 20.5388C91.7409 19.6484 91.5309 18.5032 91.3601 17.4812L90.5901 16.9716L88.9437 17.3636Z" fill="#CCCCCC"/>
<path d="M81.7449 3.53999C81.1149 3.91239 80.3449 5.49999 80.4149 8.80959C80.4793 11.6096 81.3921 12.3152 81.8485 12.5168C82.3049 12.7184 83.1897 12.5952 84.0465 12.4524V14.4432C84.0465 14.4432 82.8621 15.5156 82.9265 16.2884C82.9909 17.0612 84.6401 17.246 85.7489 16.49C86.468 15.9721 87.085 15.3256 87.5689 14.5832V10.1032C87.7616 10.258 88.0002 10.3447 88.2473 10.3498C88.4945 10.3548 88.7364 10.278 88.9353 10.1312C89.7753 9.57119 89.8397 8.29159 89.2881 7.73159C88.7365 7.17159 87.7901 7.52999 87.5689 8.29159C87.5689 8.29159 87.3869 5.93959 85.5641 4.93159C83.7413 3.92359 81.8653 4.62919 81.7449 3.53999Z" fill="#9E6767"/>
<path d="M83.9655 7.6308C83.9621 7.67789 83.968 7.72519 83.9829 7.76999C83.9978 7.81479 84.0214 7.8562 84.0524 7.89185C84.0833 7.92749 84.121 7.95667 84.1633 7.9777C84.2056 7.99873 84.2516 8.0112 84.2987 8.0144C84.3943 8.01668 84.487 7.98124 84.5566 7.91574C84.6263 7.85025 84.6674 7.75996 84.6711 7.6644C84.6733 7.61807 84.6664 7.57176 84.6507 7.52811C84.635 7.48446 84.6108 7.44434 84.5796 7.41002C84.5484 7.3757 84.5108 7.34786 84.4688 7.32809C84.4269 7.30832 84.3814 7.29701 84.3351 7.2948C84.2888 7.2926 84.2424 7.29954 84.1988 7.31523C84.1552 7.33092 84.115 7.35506 84.0807 7.38626C84.0464 7.41746 84.0185 7.45511 83.9988 7.49707C83.979 7.53903 83.9677 7.58447 83.9655 7.6308Z" fill="#263238"/>
<path d="M84.1334 10.3244L83.0778 10.6604C83.0968 10.731 83.1298 10.7971 83.1749 10.8547C83.22 10.9123 83.2763 10.9602 83.3403 10.9955C83.4044 11.0308 83.4749 11.0528 83.5477 11.0601C83.6205 11.0675 83.694 11.0601 83.7638 11.0384C83.9062 10.9909 84.0245 10.8897 84.0935 10.7564C84.1625 10.6231 84.1769 10.4681 84.1334 10.3244Z" fill="#874C4C"/>
<path d="M81.0002 7.6308C80.9968 7.67789 81.0027 7.72519 81.0176 7.76999C81.0325 7.81479 81.0561 7.8562 81.0871 7.89185C81.1181 7.92749 81.1557 7.95667 81.198 7.9777C81.2403 7.99873 81.2863 8.01121 81.3334 8.0144C81.429 8.01668 81.5217 7.98124 81.5914 7.91574C81.6611 7.85025 81.7022 7.75996 81.7058 7.6644C81.7103 7.57083 81.6774 7.47933 81.6144 7.41001C81.5513 7.3407 81.4634 7.29926 81.3698 7.2948C81.2762 7.29035 81.1847 7.32324 81.1154 7.38625C81.0461 7.44927 81.0047 7.53723 81.0002 7.6308Z" fill="#263238"/>
<path d="M82.8734 7.6476L82.8174 9.7756L81.6974 9.4284L82.8734 7.6476Z" fill="#874C4C"/>
<path d="M84.0465 12.4524C84.9509 12.332 86.8101 11.8 87.0985 11.0524C86.9834 11.4244 86.7566 11.7519 86.4489 11.9904C85.8889 12.4664 84.0465 13.004 84.0465 13.004V12.4524Z" fill="#874C4C"/>
<path d="M84.2761 1.25521C80.9777 0.434806 78.6901 3.23761 78.6901 6.01521V6.66761H81.1569C81.7118 6.6673 82.2478 6.46606 82.6658 6.10111C83.0838 5.73615 83.3554 5.23218 83.4305 4.68241L83.5201 6.66761C83.9787 6.66696 84.4202 6.49379 84.7568 6.18252C85.0935 5.87125 85.3008 5.44467 85.3373 4.98761L85.3653 4.66561C85.4089 5.20685 85.6546 5.71185 86.0536 6.0802C86.4526 6.44855 86.9755 6.65325 87.5185 6.65361H87.7369L88.0001 3.12001L84.2761 1.25521Z" fill="#263238"/>
<path d="M98.9565 28.0092C95.3753 20.7964 91.8585 16.168 90.0245 15.4288L90.1253 20.1048C90.1253 20.1048 94.4625 28.1408 97.2317 31.7752C97.2401 31.7752 99.7097 29.5268 98.9565 28.0092Z" fill="#9E6767"/>
<path d="M89.4226 14.6756C90.7806 14.9556 91.5926 14.9864 92.9506 16.7756C94.4318 18.7356 95.3894 20.4604 96.3918 21.95C96.3918 21.95 94.9918 25.408 92.8946 25.3772L90.4838 21.88C89.7113 20.8673 89.2087 19.6749 89.0231 18.4148C88.8375 17.1547 88.9749 15.8681 89.4226 14.6756Z" fill="#EBEBEB"/>
<path d="M84.6905 26.36L84.5869 26.1444C84.5337 26.0324 84.4469 25.982 84.3937 26.0324L84.2061 26.2144L83.8673 25.4948C84.0159 25.2182 84.0874 24.9069 84.0745 24.5932C84.0688 24.0872 83.9532 23.5885 83.7357 23.1316C83.566 22.726 83.2807 22.3794 82.9153 22.1348C82.8422 22.0906 82.763 22.0576 82.6801 22.0368C82.578 22.0069 82.4698 22.0047 82.3665 22.0303C82.2632 22.0558 82.1685 22.1083 82.0921 22.1824C81.7505 22.5128 81.6553 23.2352 81.8513 24.0276C81.8918 24.1966 81.9452 24.3623 82.0109 24.5232C82.0333 24.582 82.0585 24.638 82.0921 24.7136C82.4869 25.5536 83.1113 25.9876 83.5677 25.7692L83.9121 26.4972L83.7301 26.6708C83.7033 26.7161 83.6891 26.7679 83.6891 26.8206C83.6891 26.8733 83.7033 26.925 83.7301 26.9704L83.8309 27.1832C83.8841 27.298 83.9709 27.3456 84.0241 27.2952L84.2061 27.1216L84.3937 27.5192C84.4469 27.634 84.5337 27.6816 84.5869 27.6312L84.6905 27.5332C84.7183 27.4887 84.7331 27.4373 84.7331 27.3848C84.7331 27.3323 84.7183 27.2809 84.6905 27.2364L84.5029 26.8388L84.6877 26.6596C84.7165 26.615 84.7321 26.5632 84.7326 26.5102C84.7331 26.4572 84.7185 26.4051 84.6905 26.36ZM83.6601 24.3552C83.6798 24.6028 83.6013 24.8481 83.4417 25.0384C83.1617 25.3184 82.6857 25.0384 82.3973 24.4476V24.4308C82.34 24.3103 82.2941 24.1847 82.2601 24.0556C82.2096 23.8732 82.1832 23.6849 82.1817 23.4956C82.1712 23.3725 82.185 23.2485 82.2225 23.1308C82.26 23.0131 82.3203 22.9039 82.4001 22.8096C82.4593 22.7484 82.5392 22.7114 82.6241 22.706C82.7061 22.6974 82.7889 22.713 82.8621 22.7508L82.9237 22.7816C83.1581 22.938 83.3412 23.1601 83.4501 23.42C83.588 23.7155 83.6596 24.0375 83.6601 24.3636V24.3552Z" fill="#D43E8A"/>
<path d="M99.4353 18.9652L96.4645 25.2932C96.4645 25.2932 94.6221 26.4552 91.3825 28.8996C91.1674 28.1564 90.9094 27.4262 90.6097 26.7128C90.5878 26.6691 90.5682 26.6242 90.5509 26.5784C90.4669 26.3712 90.3857 26.192 90.3213 26.0548C90.2989 26.01 90.2793 25.9652 90.2625 25.9288L90.1617 25.7244L90.3213 25.0776C91.6933 23.6552 93.9613 21.6448 94.5381 21.1044C96.7081 19.0632 98.3293 18.8896 99.4353 18.9652Z" fill="#FFC4C3"/>
<path d="M96.2798 18.24H102.885C104.323 18.24 105.702 17.6689 106.718 16.6523C107.735 15.6357 108.306 14.2569 108.306 12.8192V11.5872C108.353 8.13479 105.691 5.29839 102.373 5.25079C99.0574 5.20039 96.3302 7.95839 96.2798 11.4108V11.7664C96.3274 14.936 96.2798 18.24 96.2798 18.24Z" fill="#263238"/>
<path d="M104.459 13.06C104.459 13.06 102.921 12.1864 101.233 11.0412C100.17 10.3152 99.2502 9.39922 98.5198 8.3392C98.5198 8.3392 98.4582 10.834 100.107 12.1864C101.757 13.5388 104.17 13.5864 104.232 13.5864C104.293 13.5864 104.459 13.06 104.459 13.06Z" fill="#CCCCCC"/>
<path d="M107.166 8.16001L108.521 7.36201C108.479 7.26798 108.417 7.18395 108.339 7.11534C108.262 7.04673 108.171 6.99506 108.073 6.96367C107.975 6.93227 107.871 6.92185 107.768 6.93307C107.665 6.94429 107.566 6.9769 107.477 7.02881C107.293 7.14474 107.16 7.32497 107.102 7.53422C107.045 7.74346 107.068 7.96663 107.166 8.16001Z" fill="#263238"/>
<path d="M107.135 7.72599L107.541 6.16358C107.443 6.13136 107.338 6.11995 107.235 6.13008C107.132 6.14021 107.032 6.17167 106.941 6.22246C106.851 6.27325 106.772 6.34227 106.709 6.42515C106.647 6.50803 106.602 6.60298 106.578 6.70399C106.525 6.91322 106.552 7.13499 106.656 7.32462C106.759 7.51426 106.931 7.65767 107.135 7.72599Z" fill="#263238"/>
<path d="M96.1677 72.5404V72.168C96.0193 72.6048 95.3277 74.4892 94.3029 75.43C93.4825 76.1804 92.3597 77.0484 92.0629 77.8828C91.7661 78.7172 93.6253 79.0448 94.3925 78.9076C95.2857 78.7508 96.4393 78.244 97.0693 77.4712C97.5089 76.928 97.7917 76.2868 98.1081 75.8584C98.4245 75.43 99.1497 74.954 99.3205 74.4584C99.4129 74.1784 99.3037 73.5932 99.1721 73.0892C99.0489 72.63 98.9201 72.1232 98.7633 72.1652C98.7633 72.2212 98.7633 72.4452 98.7633 72.4452C98.3914 72.7366 97.9309 72.8917 97.4585 72.8848C97.0889 72.9072 96.1649 72.84 96.1677 72.5404Z" fill="#263238"/>
<path d="M108.44 73.568C108.566 74.2639 108.633 74.9692 108.642 75.6764C108.667 76.956 108.902 77.4096 108.922 78.4596C108.955 79.658 108.706 80.4056 108.219 81.0804C107.732 81.7552 106.343 82.1108 105.802 80.9712C105.262 79.8316 105.332 79.084 105.506 77.8912C105.679 76.6984 105.704 76.004 105.808 75.0744C105.9 74.2568 106.01 73.6352 106.01 73.6352L108.44 73.568Z" fill="#263238"/>
<path d="M109 58.98C108.701 55.9 107.9 54.514 107.838 53.814C107.838 53.814 109.073 40.29 107.785 34.6396H96.2797C95.9353 39.646 94.1629 49.5832 94.5997 53.996C94.8573 56.558 96.1621 70.488 96.1621 70.488V71.5184C96.1605 71.9897 96.0653 72.4561 95.8821 72.8904C95.5657 73.652 95.0141 74.7692 94.2917 75.43C94.0593 75.64 93.8045 75.864 93.5497 76.0908C92.9113 76.8328 93.4125 77.1436 94.3897 77.012C95.4229 76.8748 96.2909 76.074 96.7445 75.444C97.4249 74.5032 98.6205 73.064 98.7465 72.5208H98.7605V72.4564V70.6504C98.8025 68.9312 100.508 59.7136 100.301 57.58C100.161 56.5215 99.9304 55.477 99.6117 54.458L101.44 43.6696C101.44 43.6696 102.56 51.3136 102.952 54.4748C103.411 58.098 105.943 72.3948 105.945 72.4284C105.989 72.8357 106.013 73.2451 106.015 73.6548C106.015 74.0608 105.786 77.6224 105.884 78.5436C106.027 79.8904 107.978 79.994 108.261 78.4568C108.449 77.4348 108.421 74.072 108.435 73.5736C108.435 73.2152 108.463 72.8148 108.485 72.3892C108.524 72.1232 109.336 62.5752 109 58.98Z" fill="#FFC4C3"/>
<path d="M104.615 19.3264L105.783 19.5392C105.133 22.7228 107.796 26.2844 107.796 26.2844L106.27 30.798C106.46 31.1396 107.656 32.9736 108.306 35.0148C109.644 39.2148 110.05 44.518 110.05 46.6516C107.034 50.2636 96.3916 50.1124 93.5608 45.9992C93.5608 45.9992 94.6304 37.3444 97.2316 30.6552L96.7052 27.5752C95.1232 25.7076 95.798 24.148 96.2796 23.2184C97.534 20.8076 98.4804 19.8864 99.4352 18.954L100.877 18.9064L104.615 19.3264Z" fill="#CCCCCC"/>
<path opacity="0.3" d="M104.615 19.3264L105.783 19.5392C105.133 22.7228 107.796 26.2844 107.796 26.2844L106.27 30.798C106.46 31.1396 107.656 32.9736 108.306 35.0148C109.644 39.2148 110.05 44.518 110.05 46.6516C107.034 50.2636 96.3916 50.1124 93.5608 45.9992C93.5608 45.9992 94.6304 37.3444 97.2316 30.6552L96.7052 27.5752C95.1232 25.7076 95.798 24.148 96.2796 23.2184C97.534 20.8076 98.4804 19.8864 99.4352 18.954L100.877 18.9064L104.615 19.3264Z" fill="black"/>
<path opacity="0.1" d="M105.682 27.242C105.962 28.3984 105.727 30.1456 104.789 30.5432C103.851 30.9408 105.069 31.5652 105.993 33.3012C106.917 35.0372 109.96 43.1964 107.062 46.4052C104.164 49.614 96.4225 48.144 96.3917 48.1384C100.698 49.9976 107.698 49.4712 110.05 46.6516C110.05 44.518 109.644 39.2204 108.306 35.0148C107.656 32.9736 106.46 31.1396 106.27 30.798L107.796 26.2844C107.047 25.2292 106.461 24.0672 106.057 22.8376L105.237 22.9272C105.237 22.9272 105.413 26.08 105.682 27.242Z" fill="black"/>
<path d="M118.99 14.1744C119.077 15.1936 119.447 23.2324 119.41 23.924C119.338 25.4388 119.539 27.1496 117.106 26.724C115.012 26.3656 108.241 24.8676 108.241 24.8676L107.796 26.2676C107.796 26.2676 105.665 25.6656 105.237 22.9076C105.032 21.749 105.225 20.5552 105.783 19.5196C106.906 19.4176 108.037 19.5259 109.12 19.8388C109.986 20.0572 111.106 20.6228 113.01 21.222C115.031 21.8604 115.922 22.1712 115.922 22.1712L116.252 14.4348" fill="#FFC4C3"/>
<path d="M119.044 15.0396C118.994 14.6214 119.093 14.1992 119.324 13.8468C119.591 13.5493 119.752 13.1708 119.78 12.7716C119.9 12.0744 119.976 11.4976 119.976 11.4976C119.976 11.4976 120.052 10.848 119.786 10.5988C119.715 10.5173 119.615 10.4656 119.508 10.4542C119.4 10.4428 119.293 10.4724 119.206 10.5372C119.258 10.4175 119.268 10.2839 119.234 10.1579C119.201 10.0319 119.126 9.92086 119.021 9.84277C118.91 9.77245 118.777 9.74373 118.646 9.76166C118.516 9.77958 118.396 9.84301 118.307 9.94077C118.307 9.94077 118.5 9.34157 117.999 9.12037C117.875 9.05246 117.73 9.03583 117.594 9.07404C117.457 9.11225 117.342 9.20226 117.271 9.32478C117.309 9.16039 117.281 8.98762 117.193 8.84362C117.105 8.69962 116.965 8.5959 116.801 8.55478C116.47 8.44278 116.112 8.59677 115.756 9.65797C115.483 9.73363 115.238 9.88969 115.054 10.106C114.828 10.7639 114.676 11.4447 114.6 12.136C114.555 12.5028 114.846 13.13 115.311 13.5976C115.734 14.0204 116.263 14.4852 116.21 15.7536L119.044 15.0396Z" fill="#FFC4C3"/>
<path d="M119.315 12.5476L119.271 12.5924C119.217 12.6479 119.151 12.6901 119.078 12.7158C119.005 12.7416 118.927 12.7501 118.851 12.7408C118.799 12.7118 118.755 12.6716 118.721 12.6231C118.687 12.5747 118.664 12.5192 118.655 12.4608C118.622 12.2756 118.622 12.0861 118.655 11.9008C118.655 11.9008 118.655 11.9008 118.655 11.8784C118.655 11.856 118.618 11.8784 118.607 11.8784C118.534 11.9596 118.487 12.0576 118.419 12.1584C118.377 12.2174 118.321 12.265 118.256 12.2967C118.191 12.3285 118.119 12.3435 118.047 12.3404C117.747 12.3404 117.672 11.9736 117.68 11.7328C117.68 11.6516 117.68 11.5732 117.68 11.492C117.68 11.492 117.68 11.4668 117.663 11.4668C117.623 11.4996 117.589 11.5406 117.565 11.5872C117.534 11.6345 117.498 11.6778 117.456 11.716C117.405 11.7687 117.34 11.8056 117.269 11.8224C117.112 11.8476 117.042 11.7048 116.989 11.5816C116.899 11.3814 116.865 11.1612 116.888 10.9432V10.9236H116.947C117.523 10.9964 117.719 10.428 117.535 10.2824C117.35 10.1368 116.695 9.45641 116.543 9.47881C116.275 9.51053 116.009 9.562 115.748 9.63281L116.56 9.56001C116.56 9.56001 117.501 10.4 117.459 10.5092C117.43 10.6034 117.371 10.6852 117.29 10.7416C117.209 10.7979 117.112 10.8255 117.014 10.82C116.729 10.8024 116.447 10.7507 116.174 10.666C116.151 10.8928 115.656 11.2484 115.656 11.2484C116.109 11.435 116.529 11.692 116.902 12.01C117.361 12.4283 117.74 12.9263 118.022 13.48C117.897 12.9393 117.633 12.4404 117.257 12.0324C117.343 12.0241 117.424 11.9921 117.493 11.94C117.493 12.2732 117.551 12.5896 117.971 12.5896C118.066 12.5982 118.161 12.5814 118.246 12.541C118.332 12.5007 118.405 12.4382 118.459 12.36C118.452 12.4511 118.474 12.5419 118.52 12.6207C118.565 12.6996 118.634 12.7629 118.716 12.8024C118.808 12.8554 118.916 12.8721 119.02 12.8493C119.124 12.8265 119.215 12.7658 119.276 12.6792C119.299 12.6443 119.318 12.6078 119.335 12.57C119.336 12.5626 119.336 12.555 119.335 12.5476C119.335 12.5476 119.327 12.5476 119.315 12.5476ZM116.202 10.8368C116.202 10.8368 116.336 10.8704 116.781 10.9292C116.734 11.0188 116.711 11.1196 116.672 11.2092C116.653 11.2636 116.623 11.3139 116.585 11.3576L116.549 11.3856C116.376 11.2561 116.195 11.1392 116.006 11.0356C116.09 10.9914 116.159 10.9219 116.202 10.8368Z" fill="#FFA8A7"/>
<path d="M98.5198 8.3392C97.9234 8.8992 97.1758 10.0808 97.2346 13.5612C97.285 16.5124 98.2006 17.246 98.6598 17.4588C99.119 17.6716 100.012 17.5484 100.877 17.4028V18.9176C100.877 18.9176 99.3654 20.4352 99.4382 21.2472C99.511 22.0592 101.457 22.4372 102.58 21.6504C103.369 21.04 104.057 20.3074 104.615 19.4804L104.652 15.2496C104.652 15.2496 105.159 15.7676 106.027 14.9864C106.743 14.3424 106.987 13.2504 106.435 12.6596C106.293 12.5203 106.119 12.4179 105.928 12.3614C105.738 12.3048 105.536 12.296 105.341 12.3355C105.146 12.375 104.963 12.4617 104.81 12.588C104.656 12.7143 104.535 12.8764 104.459 13.06C103.203 12.9589 101.983 12.5924 100.88 11.9848C99.1358 11.0076 98.713 9.4676 98.5198 8.3392Z" fill="#FFC4C3"/>
<path d="M98.5645 12.6092C98.5679 12.6567 98.562 12.7043 98.5469 12.7495C98.5319 12.7946 98.508 12.8363 98.4768 12.8722C98.4456 12.9082 98.4076 12.9375 98.365 12.9587C98.3224 12.9799 98.276 12.9924 98.2285 12.9956C98.1351 12.9935 98.046 12.9561 97.979 12.891C97.912 12.8258 97.8723 12.7377 97.8676 12.6444C97.863 12.551 97.8939 12.4594 97.9541 12.388C98.0143 12.3165 98.0994 12.2705 98.1921 12.2592C98.2396 12.2577 98.2868 12.2656 98.3312 12.2824C98.3756 12.2992 98.4163 12.3245 98.4509 12.357C98.4854 12.3895 98.5133 12.4285 98.5328 12.4718C98.5523 12.5151 98.5631 12.5618 98.5645 12.6092Z" fill="#263238"/>
<path d="M101.589 12.6932C101.589 12.7628 101.569 12.831 101.531 12.8893C101.493 12.9477 101.439 12.9936 101.375 13.0214C101.311 13.0492 101.241 13.0577 101.172 13.0458C101.104 13.034 101.04 13.0022 100.989 12.9545C100.939 12.9069 100.903 12.8454 100.887 12.7776C100.871 12.7099 100.875 12.639 100.899 12.5736C100.923 12.5082 100.965 12.4513 101.021 12.4098C101.077 12.3684 101.144 12.3442 101.213 12.3404C101.261 12.3385 101.309 12.3462 101.354 12.363C101.399 12.3798 101.44 12.4054 101.475 12.4382C101.51 12.471 101.538 12.5105 101.557 12.5543C101.577 12.5981 101.588 12.6453 101.589 12.6932Z" fill="#263238"/>
<path d="M100.645 15.44L99.8049 15.72C99.8181 15.7767 99.8428 15.83 99.8774 15.8768C99.9121 15.9236 99.956 15.9627 100.006 15.9918C100.057 16.021 100.113 16.0395 100.17 16.0462C100.228 16.0529 100.287 16.0476 100.342 16.0308C100.46 15.9911 100.557 15.9071 100.614 15.7968C100.67 15.6865 100.681 15.5585 100.645 15.44Z" fill="#FFA8A7"/>
<path d="M97.6041 11.5928L98.3293 11.0776C98.3008 11.0272 98.262 10.9833 98.2155 10.9489C98.1689 10.9145 98.1156 10.8903 98.0591 10.8778C98.0025 10.8654 97.944 10.8651 97.8873 10.8768C97.8306 10.8886 97.777 10.9121 97.7301 10.946C97.6334 11.0196 97.5672 11.1262 97.544 11.2454C97.5208 11.3647 97.5421 11.4883 97.6041 11.5928Z" fill="#263238"/>
<path d="M104.453 12.71V13.956C104.373 13.9594 104.294 13.9466 104.219 13.9182C104.145 13.8898 104.077 13.8465 104.02 13.7909C103.962 13.7353 103.917 13.6686 103.887 13.5949C103.856 13.5213 103.841 13.4421 103.842 13.3624C103.84 13.1958 103.902 13.0348 104.016 12.9131C104.13 12.7915 104.287 12.7187 104.453 12.71Z" fill="#263238"/>
<path d="M99.6847 12.3404L99.6931 14.7568L98.5674 14.3872L99.6847 12.3404Z" fill="#FFA8A7"/>
<path d="M104.979 12.4748H102.591C102.537 12.2182 102.396 11.9881 102.192 11.8234C101.988 11.6586 101.733 11.5693 101.471 11.5704H101.294C101.069 11.5713 100.849 11.6388 100.662 11.7643C100.474 11.8898 100.328 12.0678 100.242 12.276C100.064 12.1013 99.8269 12.0012 99.5781 11.996C99.3681 11.9784 99.1593 12.0404 98.9929 12.1696C98.8954 11.9916 98.7521 11.843 98.5778 11.7391C98.4035 11.6352 98.2046 11.5799 98.0017 11.5788H97.8253C97.5331 11.5933 97.2578 11.7195 97.0562 11.9314C96.8546 12.1433 96.7421 12.4245 96.7421 12.717C96.7421 13.0095 96.8546 13.2907 97.0562 13.5026C97.2578 13.7145 97.5331 13.8407 97.8253 13.8552H98.0017C98.3032 13.8552 98.5923 13.7354 98.8055 13.5222C99.0187 13.309 99.1385 13.0199 99.1385 12.7184C99.1374 12.5952 99.1156 12.4732 99.074 12.3572C99.1392 12.2944 99.2174 12.2465 99.303 12.217C99.3886 12.1875 99.4796 12.1771 99.5697 12.1864C99.6867 12.1876 99.8019 12.2157 99.9063 12.2687C100.011 12.3216 100.102 12.3979 100.172 12.4916C100.156 12.568 100.148 12.646 100.149 12.724C100.149 13.0255 100.269 13.3146 100.482 13.5278C100.695 13.741 100.985 13.8608 101.286 13.8608H101.462C101.764 13.8608 102.053 13.741 102.266 13.5278C102.479 13.3146 102.599 13.0255 102.599 12.724C102.599 12.71 102.599 12.696 102.599 12.682H104.73C104.807 12.6056 104.89 12.5362 104.979 12.4748ZM98.0101 13.6536H97.8337C97.7052 13.6606 97.5767 13.6413 97.456 13.597C97.3353 13.5527 97.2248 13.4842 97.1314 13.3958C97.0381 13.3073 96.9637 13.2008 96.9128 13.0826C96.862 12.9645 96.8358 12.8372 96.8358 12.7086C96.8358 12.58 96.862 12.4527 96.9128 12.3346C96.9637 12.2164 97.0381 12.1099 97.1314 12.0214C97.2248 11.933 97.3353 11.8645 97.456 11.8202C97.5767 11.7759 97.7052 11.7566 97.8337 11.7636H98.0101C98.1385 11.7566 98.267 11.7759 98.3877 11.8202C98.5085 11.8645 98.6189 11.933 98.7123 12.0214C98.8057 12.1099 98.88 12.2164 98.9309 12.3346C98.9817 12.4527 99.0079 12.58 99.0079 12.7086C99.0079 12.8372 98.9817 12.9645 98.9309 13.0826C98.88 13.2008 98.8057 13.3073 98.7123 13.3958C98.6189 13.4842 98.5085 13.5527 98.3877 13.597C98.267 13.6413 98.1385 13.6606 98.0101 13.6536ZM101.479 13.6536H101.303C101.174 13.6606 101.046 13.6413 100.925 13.597C100.804 13.5527 100.694 13.4842 100.601 13.3958C100.507 13.3073 100.433 13.2008 100.382 13.0826C100.331 12.9645 100.305 12.8372 100.305 12.7086C100.305 12.58 100.331 12.4527 100.382 12.3346C100.433 12.2164 100.507 12.1099 100.601 12.0214C100.694 11.933 100.804 11.8645 100.925 11.8202C101.046 11.7759 101.174 11.7566 101.303 11.7636H101.479C101.721 11.7768 101.948 11.8821 102.115 12.0578C102.281 12.2336 102.374 12.4665 102.374 12.7086C102.374 12.9507 102.281 13.1836 102.115 13.3594C101.948 13.5351 101.721 13.6404 101.479 13.6536Z" fill="#455A64"/>
<path d="M100.88 17.4C101.793 17.2796 103.68 16.728 103.96 15.958C103.842 16.3445 103.611 16.6868 103.297 16.9408C102.737 17.4364 100.88 17.9936 100.88 17.9936V17.4Z" fill="#FFA8A7"/>
<path d="M35.3322 2.68601H36.5502C37.8869 2.68601 39.1689 3.21701 40.114 4.16219C41.0592 5.10737 41.5902 6.38932 41.5902 7.72601V13.8076C41.5902 14.6906 41.2395 15.5374 40.6151 16.1617C39.9908 16.7861 39.144 17.1368 38.261 17.1368H30.2866V7.73161C30.2859 7.0688 30.4159 6.41236 30.6692 5.79987C30.9225 5.18738 31.2941 4.63086 31.7628 4.16219C32.2315 3.69351 32.788 3.32189 33.4005 3.06858C34.013 2.81528 34.6694 2.68527 35.3322 2.68601Z" fill="#CCCCCC"/>
<path opacity="0.15" d="M35.3322 2.68601H36.5502C37.8869 2.68601 39.1689 3.21701 40.114 4.16219C41.0592 5.10737 41.5902 6.38932 41.5902 7.72601V13.8076C41.5902 14.6906 41.2395 15.5374 40.6151 16.1617C39.9908 16.7861 39.144 17.1368 38.261 17.1368H30.2866V7.73161C30.2859 7.0688 30.4159 6.41236 30.6692 5.79987C30.9225 5.18738 31.2941 4.63086 31.7628 4.16219C32.2315 3.69351 32.788 3.32189 33.4005 3.06858C34.013 2.81528 34.6694 2.68527 35.3322 2.68601Z" fill="black"/>
<path d="M34.9542 75.5532C34.6994 75.3264 34.4446 75.1052 34.215 74.8952C33.4982 74.24 32.9522 73.1312 32.6358 72.3752C32.4538 71.9444 32.3586 71.482 32.3558 71.0144V69.5388H29.7686V71.9384V72C29.8946 72.5376 31.0818 73.96 31.7566 74.9008C32.2074 75.5252 33.067 76.3204 34.0946 76.4576C35.0802 76.5976 35.587 76.2896 34.9542 75.5532Z" fill="#B16668"/>
<path d="M29.1189 73.0304C28.9873 73.6296 29.1805 75.2704 29.1805 75.2704C29.1805 75.2704 29.4605 75.8304 30.3845 76.1804L30.7401 73.8928L29.1189 73.0304Z" fill="#263238"/>
<path d="M30.3846 76.1748L32.3978 75.458L32.843 73.6436L30.589 74.8532L30.3846 76.1748Z" fill="black"/>
<path d="M32.3669 70.8632V70.4348C32.6469 70.5636 33.3077 72.77 34.1673 74.2736C34.9513 75.6484 36.4549 76.3848 36.9533 76.9784C37.6197 77.7736 36.3933 78.8488 34.3661 78.468C33.3609 78.2804 31.8461 77.6784 31.4065 77.0148C30.9669 76.3512 30.8101 75.1136 30.4629 74.6264C30.1157 74.1392 29.3037 73.5904 29.1189 73.0304C29.0181 72.7224 29.1553 72.0532 29.3121 71.4904C29.4577 70.9724 29.5921 70.3452 29.7797 70.3984V70.7904C29.9197 71.0704 30.1857 71.3504 31.2049 71.3812C31.6893 71.3952 32.1541 71.3084 32.3669 70.8632Z" fill="#CCCCCC"/>
<path opacity="0.6" d="M32.3669 70.8632V70.4348C32.6469 70.5636 33.3077 72.77 34.1673 74.2736C34.9513 75.6484 36.4549 76.3848 36.9533 76.9784C37.6197 77.7736 36.3933 78.8488 34.3661 78.468C33.3609 78.2804 31.8461 77.6784 31.4065 77.0148C30.9669 76.3512 30.8101 75.1136 30.4629 74.6264C30.1157 74.1392 29.3037 73.5904 29.1189 73.0304C29.0181 72.7224 29.1553 72.0532 29.3121 71.4904C29.4577 70.9724 29.5921 70.3452 29.7797 70.3984V70.7904C29.9197 71.0704 30.1857 71.3504 31.2049 71.3812C31.6893 71.3952 32.1541 71.3084 32.3669 70.8632Z" fill="black"/>
<path d="M44.7794 74.1672C44.5274 73.9432 44.2726 73.722 44.0402 73.5092C43.3234 72.854 42.7746 71.7424 42.461 70.9892C42.2785 70.4835 42.1839 69.9504 42.181 69.4128V68.1836L39.5966 68.1472V70.5524V70.6168H39.6106C39.7338 71.1544 40.9238 72.5768 41.5986 73.5204C42.0522 74.1476 42.9146 74.9456 43.9422 75.0828C44.9166 75.2144 45.415 74.9064 44.7794 74.1672Z" fill="#B16668"/>
<path d="M38.9356 71.5744C38.804 72.1764 38.9972 73.8144 38.9972 73.8144C38.9972 73.8144 39.2772 74.3744 40.1984 74.7272L40.5568 72.4396L38.9356 71.5744Z" fill="#263238"/>
<path d="M40.1985 74.7216L42.2145 74.0048L42.6597 72.1876L40.4057 73.4L40.1985 74.7216Z" fill="black"/>
<path d="M42.181 69.41V68.9816C42.461 69.1104 43.1218 71.3168 43.9814 72.8204C44.7654 74.1924 46.2718 74.9316 46.7814 75.5252C47.4478 76.3204 46.2214 77.3956 44.197 77.0148C43.1918 76.8244 41.677 76.2252 41.2346 75.5588C40.7922 74.8924 40.6382 73.6604 40.291 73.1732C39.9438 72.686 39.1318 72.1344 38.9498 71.5744C38.849 71.2664 38.9862 70.6 39.143 70.0344C39.2886 69.5192 39.423 68.8948 39.6106 68.9452V69.3428C39.7534 69.6228 40.0166 69.9028 41.033 69.9252C41.5034 69.9392 41.971 69.8552 42.181 69.41Z" fill="#CCCCCC"/>
<path opacity="0.6" d="M42.181 69.41V68.9816C42.461 69.1104 43.1218 71.3168 43.9814 72.8204C44.7654 74.1924 46.2718 74.9316 46.7814 75.5252C47.4478 76.3204 46.2214 77.3956 44.197 77.0148C43.1918 76.8244 41.677 76.2252 41.2346 75.5588C40.7922 74.8924 40.6382 73.6604 40.291 73.1732C39.9438 72.686 39.1318 72.1344 38.9498 71.5744C38.849 71.2664 38.9862 70.6 39.143 70.0344C39.2886 69.5192 39.423 68.8948 39.6106 68.9452V69.3428C39.7534 69.6228 40.0166 69.9028 41.033 69.9252C41.5034 69.9392 41.971 69.8552 42.181 69.41Z" fill="black"/>
<path d="M29.6537 31.5204C27.5789 36.0536 29.7293 52.022 29.7293 52.022C29.6649 52.7584 28.6849 54.402 28.7521 57.342C28.8389 61.1836 29.6257 69.6452 29.6257 69.6452C29.6257 69.6452 31.0789 70.796 32.5517 69.7992C32.5517 69.7992 34.3493 56.516 34.8281 52.7192C35.2481 49.4012 36.0517 42.1016 36.0517 42.1016L38.3365 52.7024C38.3365 52.7024 37.6197 55.1692 37.6029 56.5944C37.5665 59.5288 39.4061 68.2816 39.4061 68.2816C39.4061 68.2816 40.6017 69.214 42.2845 68.3376C42.2845 68.3376 43.0069 54.8976 43.2085 52.1956C43.5473 47.668 42.3461 33.5448 41.5285 30.868L29.6537 31.5204Z" fill="#CCCCCC"/>
<g opacity="0.3">
<path opacity="0.3" d="M29.6537 31.5204C27.5789 36.0536 29.7293 52.022 29.7293 52.022C29.6649 52.7584 28.6849 54.402 28.7521 57.342C28.8389 61.1836 29.6257 69.6452 29.6257 69.6452C29.6257 69.6452 31.0789 70.796 32.5517 69.7992C32.5517 69.7992 34.3493 56.516 34.8281 52.7192C35.2481 49.4012 36.0517 42.1016 36.0517 42.1016L38.3365 52.7024C38.3365 52.7024 37.6197 55.1692 37.6029 56.5944C37.5665 59.5288 39.4061 68.2816 39.4061 68.2816C39.4061 68.2816 40.6017 69.214 42.2845 68.3376C42.2845 68.3376 43.0069 54.8976 43.2085 52.1956C43.5473 47.668 42.3461 33.5448 41.5285 30.868L29.6537 31.5204Z" fill="black"/>
</g>
<g opacity="0.15">
<path opacity="0.15" d="M36.0518 42.0932L36.7266 37.8932C36.7266 37.8932 39.577 37.3024 40.8678 36.0872C40.8678 36.0872 39.5126 37.7672 37.5078 38.3272L36.749 41.5696L37.9502 50.8796L36.0518 42.0932Z" fill="black"/>
</g>
<path d="M43.4802 26.1444C44.4518 27.0992 46.619 27.6396 52.2106 28.6084C53.2298 28.7848 54.8286 29.0956 55.8058 28.6896C56.783 28.2836 57.4858 27.9224 58.0458 27.0432C58.1824 26.8476 58.2838 26.6297 58.3454 26.3992C58.405 26.1651 58.3709 25.9169 58.2502 25.7076C58.115 25.5185 57.9162 25.3843 57.6902 25.3296C57.2954 25.2176 56.825 25.3856 56.4526 25.52C56.2622 25.5872 56.0746 25.6908 55.8926 25.744C55.6236 25.8213 55.348 25.8737 55.0694 25.9008C55.033 25.9008 54.9798 25.9008 54.9826 25.856C54.9834 25.8414 54.9893 25.8275 54.9994 25.8168C55.0638 25.7356 55.145 25.6684 55.215 25.5928C55.3404 25.4378 55.4441 25.2663 55.523 25.0832C55.5858 24.9586 55.6338 24.827 55.6658 24.6912C55.6895 24.6107 55.6905 24.5253 55.6687 24.4443C55.647 24.3633 55.6034 24.2898 55.5426 24.232C55.2794 24.0248 55.327 24.0696 54.8566 24.4728C54.3862 24.876 54.2966 24.6828 53.6666 25.3128C53.1234 25.8728 53.2438 26.0856 52.5886 26.3544C51.8774 26.6344 51.9698 26.6512 48.8254 25.6936C47.6782 25.3845 46.5835 24.9061 45.5774 24.274C44.6982 22.874 42.4526 19.5448 41.5314 17.9348C40.5598 16.2324 38.583 16.1792 38.583 16.1792C38.583 16.1792 38.5494 17.5792 39.5994 20.6956C40.2798 22.72 43.007 25.6712 43.4802 26.1444Z" fill="#B16668"/>
<path d="M38.4038 16.0868C39.2565 16.0711 40.0897 16.3423 40.7698 16.8568C41.8898 17.7136 42.2538 18.3604 43.1946 19.7492C43.9142 20.8104 46.0758 23.91 46.0758 23.91C46.0758 23.91 46.9998 24.47 49.8782 25.4864C51.2138 25.9624 51.9698 26.192 51.9698 26.192C52.0763 26.6508 52.0557 27.13 51.9102 27.578C51.7646 28.026 51.4997 28.4258 51.1438 28.7344C51.1438 28.7344 48.3942 28.2864 46.9018 27.8944C43.8806 27.0768 43.7602 26.7576 43.2618 26.2816C42.7634 25.8056 39.4118 22.216 39.4118 22.216L38.4038 16.0868Z" fill="#818181"/>
<path d="M33.5233 16.112L31.6781 16.2044L29.8609 18.2652C29.7181 19.4412 29.3009 20.956 29.6761 22.076L30.9053 26.7744C30.3925 28.3344 29.9745 29.9239 29.6537 31.5344C34.3073 34.1328 40.1173 32.7664 41.5173 30.8736C41.6009 28.8345 41.557 26.7921 41.3857 24.7584C42.5449 22.9608 42.6457 21.208 42.0353 19.9452C41.0413 17.8872 39.5993 16.4424 38.8741 16.2184C38.2546 16.0616 37.6176 15.9844 36.9785 15.9888L33.5233 16.112Z" fill="#CCCCCC"/>
<path d="M31.6782 16.2044C30.3202 16.4844 29.5082 16.5152 28.1502 18.3044C26.669 20.2644 22.8302 27.1104 21.8278 28.6028C21.8278 28.6028 21.573 32.4024 23.6618 32.3688L30.5386 22.9132C30.5386 22.9132 32.437 19.6736 31.6782 16.2044Z" fill="#818181"/>
<path d="M32.3166 15.258H35.6766V19.2032C35.6766 20.0943 35.3226 20.949 34.6925 21.5791C34.0623 22.2092 33.2077 22.5632 32.3166 22.5632V15.258Z" fill="#CCCCCC"/>
<path opacity="0.3" d="M32.3166 15.258H35.6766V19.2032C35.6766 20.0943 35.3226 20.949 34.6925 21.5791C34.0623 22.2092 33.2077 22.5632 32.3166 22.5632V15.258Z" fill="black"/>
<path d="M39.745 5.5644C40.5066 6.1076 40.7642 6.7292 40.683 10.1984C40.6158 13.1384 39.6638 13.8664 39.185 14.0764C38.7062 14.2864 37.785 14.1576 36.8862 14.0092V16.0896C36.8862 16.0896 37.2698 16.3388 37.4798 17.1228C37.5386 17.3412 36.8162 17.6828 35.0326 17.4364C34.6511 17.4032 34.2836 17.2765 33.9628 17.0675C33.6419 16.8585 33.3775 16.5736 33.193 16.238V9.6608C33.193 9.6608 33.193 6.9952 35.111 5.948C37.029 4.9008 38.8126 5.1528 39.745 5.5644Z" fill="#B16668"/>
<path d="M33.193 9.6608C33.193 9.6608 34.9402 6.55 37.4798 6.1692C40.0194 5.7884 40.585 7.0652 40.585 7.0652C40.585 7.0652 40.2602 4.1868 37.4798 4.2652C33.6466 4.3632 33.193 7.2948 33.193 9.6608Z" fill="#CCCCCC"/>
<path opacity="0.4" d="M33.193 9.6608C33.193 9.6608 34.9402 6.55 37.4798 6.1692C40.0194 5.7884 40.585 7.0652 40.585 7.0652C40.585 7.0652 40.2602 4.1868 37.4798 4.2652C33.6466 4.3632 33.193 7.2948 33.193 9.6608Z" fill="black"/>
<path d="M37.4014 9.4592C37.4063 9.55723 37.3719 9.65315 37.306 9.72588C37.2401 9.79861 37.1481 9.84217 37.05 9.847C36.952 9.85183 36.8561 9.81752 36.7834 9.75162C36.7106 9.68572 36.6671 9.59363 36.6622 9.4956C36.6584 9.44623 36.6645 9.39659 36.6801 9.3496C36.6957 9.3026 36.7206 9.25919 36.7532 9.22191C36.7857 9.18462 36.8254 9.15421 36.8699 9.13246C36.9144 9.1107 36.9628 9.09804 37.0122 9.09521C37.112 9.09218 37.209 9.12876 37.2819 9.19696C37.3548 9.26515 37.3978 9.35943 37.4014 9.4592Z" fill="#263238"/>
<path d="M37.4993 11.954L38.3589 12.234C38.3435 12.2918 38.3166 12.3458 38.2798 12.3929C38.243 12.44 38.1971 12.4793 38.1449 12.5083C38.0926 12.5373 38.0351 12.5555 37.9756 12.5617C37.9162 12.568 37.8561 12.5623 37.7989 12.5448C37.682 12.5045 37.5854 12.4204 37.5295 12.3101C37.4736 12.1998 37.4628 12.0721 37.4993 11.954Z" fill="#9A4A4D"/>
<path d="M40.3583 8.5156L39.6107 7.9976C39.6419 7.94703 39.6831 7.90337 39.7317 7.86927C39.7804 7.83518 39.8355 7.81138 39.8937 7.79932C39.9519 7.78727 40.0119 7.78721 40.0701 7.79915C40.1284 7.8111 40.1835 7.8348 40.2323 7.8688C40.3321 7.93998 40.4008 8.04674 40.4242 8.16707C40.4477 8.28741 40.4241 8.41215 40.3583 8.5156Z" fill="#263238"/>
<path d="M36.1385 8.3252L36.8861 7.8072C36.8549 7.75663 36.8137 7.71297 36.765 7.67887C36.7164 7.64478 36.6613 7.62098 36.6031 7.60892C36.5449 7.59687 36.4848 7.59681 36.4266 7.60875C36.3684 7.6207 36.3133 7.6444 36.2645 7.6784C36.1647 7.74958 36.096 7.85634 36.0726 7.97667C36.0491 8.09701 36.0727 8.22175 36.1385 8.3252Z" fill="#263238"/>
<path d="M40.1846 9.38359C40.1851 9.45607 40.1642 9.5271 40.1247 9.58782C40.0851 9.64855 40.0285 9.6963 39.962 9.72512C39.8955 9.75395 39.822 9.76258 39.7506 9.74995C39.6792 9.73731 39.6131 9.70397 39.5606 9.65406C39.508 9.60416 39.4713 9.53989 39.4549 9.46927C39.4386 9.39865 39.4434 9.32478 39.4687 9.25686C39.4941 9.18895 39.5388 9.12998 39.5974 9.08729C39.656 9.0446 39.7258 9.02009 39.7982 9.01679C39.898 9.01453 39.9946 9.05183 40.067 9.12054C40.1394 9.18926 40.1817 9.28382 40.1846 9.38359Z" fill="#263238"/>
<path d="M38.4401 9.13998L38.4989 11.366L39.6721 11.002L38.4401 9.13998Z" fill="#9A4A4D"/>
<path d="M36.886 14.0092C35.9396 13.8832 33.9936 13.326 33.6912 12.556C33.8124 12.9453 34.0511 13.2876 34.3744 13.536C34.954 14.0344 36.8944 14.5972 36.8944 14.5972L36.886 14.0092Z" fill="#9A4A4D"/>
<path d="M38.0846 14.3956L36.889 14.0092C36.889 14.0602 36.8789 14.1106 36.8593 14.1577C36.8397 14.2048 36.811 14.2475 36.7749 14.2834C36.7387 14.3193 36.6958 14.3477 36.6485 14.367C36.6013 14.3862 36.5508 14.3959 36.4998 14.3956H34.6266C34.2464 14.3956 33.8818 14.2445 33.6129 13.9757C33.3441 13.7068 33.193 13.3422 33.193 12.962L32.0002 14.3956H30.2866V16.658C30.2866 17.0293 30.4341 17.3854 30.6967 17.6479C30.9592 17.9105 31.3153 18.058 31.6866 18.058H36.8498C37.2977 18.058 37.7411 17.9698 38.1549 17.7984C38.5687 17.627 38.9446 17.3758 39.2613 17.0591C39.578 16.7424 39.8292 16.3665 40.0006 15.9527C40.172 15.5389 40.2602 15.0954 40.2602 14.6476V14.3956H38.0846Z" fill="#CCCCCC"/>
<path opacity="0.15" d="M38.0846 14.3956L36.889 14.0092C36.889 14.0602 36.8789 14.1106 36.8593 14.1577C36.8397 14.2048 36.811 14.2475 36.7749 14.2834C36.7387 14.3193 36.6958 14.3477 36.6485 14.367C36.6013 14.3862 36.5508 14.3959 36.4998 14.3956H34.6266C34.2464 14.3956 33.8818 14.2445 33.6129 13.9757C33.3441 13.7068 33.193 13.3422 33.193 12.962L32.0002 14.3956H30.2866V16.658C30.2866 17.0293 30.4341 17.3854 30.6967 17.6479C30.9592 17.9105 31.3153 18.058 31.6866 18.058H36.8498C37.2977 18.058 37.7411 17.9698 38.1549 17.7984C38.5687 17.627 38.9446 17.3758 39.2613 17.0591C39.578 16.7424 39.8292 16.3665 40.0006 15.9527C40.172 15.5389 40.2602 15.0954 40.2602 14.6476V14.3956H38.0846Z" fill="black"/>
<path d="M12.792 24.8732V13.0684C12.7752 9.61599 15.48 6.80479 18.784 6.78799C22.0992 6.76839 24.8012 9.55159 24.818 13.004V24.8424L12.792 24.8732Z" fill="#333333"/>
<path d="M22.049 20.592C23.3874 20.7068 24.7117 20.788 26.4338 23.3444C26.9714 24.1424 29.3514 27.1328 30.3986 28.4348C30.099 29.5548 29.8582 30.5068 29.6538 31.5148L29.2002 32.9568C26.4142 29.6136 24.4878 27.326 24.4878 27.326L22.049 20.592Z" fill="#FFBDA7"/>
<path d="M13.9345 9.6748L12.5793 8.87681C12.6221 8.78278 12.6841 8.69875 12.7613 8.63014C12.8385 8.56153 12.9292 8.50986 13.0276 8.47847C13.126 8.44707 13.2299 8.43665 13.3326 8.44787C13.4353 8.45909 13.5344 8.4917 13.6237 8.54361C13.8072 8.65954 13.9407 8.83977 13.9982 9.04902C14.0557 9.25826 14.033 9.48143 13.9345 9.6748Z" fill="#37474F"/>
<path d="M13.9653 9.25759L13.5593 7.6924C13.6578 7.66018 13.7619 7.64879 13.865 7.65895C13.9682 7.66911 14.068 7.7006 14.1584 7.75141C14.2487 7.80222 14.3274 7.87126 14.3896 7.95413C14.4518 8.037 14.4961 8.13189 14.5197 8.23279C14.5736 8.44204 14.5463 8.6639 14.4435 8.85394C14.3407 9.04397 14.1699 9.18815 13.9653 9.25759Z" fill="#37474F"/>
<path d="M23.992 74.1224V73.75C24.1376 74.1868 24.832 76.0684 25.854 77.012C26.6772 77.7624 27.7972 78.6276 28.094 79.4648C28.3908 80.302 26.5344 80.6268 25.7672 80.4896C24.874 80.3328 23.7204 79.826 23.0904 79.0532C22.648 78.51 22.368 77.866 22.0516 77.4404C21.7352 77.0148 21.01 76.536 20.8392 76.0404C20.744 75.7604 20.856 75.1724 20.9876 74.6712C21.1192 74.17 21.2396 73.7024 21.3964 73.7472V74.0272C21.7679 74.3198 22.2285 74.476 22.7012 74.4696C23.0708 74.4892 23.9948 74.4136 23.992 74.1224Z" fill="#263238"/>
<path d="M12.0025 75.1388C11.8792 75.835 11.8127 76.5402 11.8037 77.2472C11.7785 78.5268 11.5433 78.9804 11.5237 80.0304C11.4873 81.2288 11.6945 81.6796 12.1817 82.3516C12.6689 83.0236 13.9457 83.6396 14.4861 82.5C15.0265 81.3604 14.9565 80.6128 14.7857 79.4368C14.6065 78.2188 14.5841 77.5468 14.4805 76.62C14.3881 75.7996 14.2789 75.178 14.2789 75.178L12.0025 75.1388Z" fill="#263238"/>
<path d="M26.5989 77.6728C26.3441 77.4432 26.0865 77.222 25.8541 77.0092C25.1317 76.3512 24.5829 75.234 24.2665 74.4696C24.0827 74.0355 23.9875 73.569 23.9865 73.0976V72.7364C23.9865 72.7364 25.1065 58.0672 25.3109 55.4996C25.5685 52.0612 26.0837 39.0048 24.1909 32.3688L14.8109 32.3268C14.6261 33.2732 11.8821 36.8656 11.7505 41.172C11.5909 46.3072 12.4533 55.3428 12.4533 55.3428C12.4001 56.04 11.6077 57.4232 11.3109 60.52C10.9749 63.9836 11.8149 71.7788 11.9437 73.75C11.9689 74.2568 11.9913 74.73 12.0025 75.15C12.0025 75.6456 12.0025 79.0112 12.1789 80.0332C12.4589 81.5704 14.2845 81.3604 14.3797 80.442C14.4749 79.5236 14.2621 75.5952 14.2677 75.1892C14.2677 74.8756 14.2901 74.464 14.3349 73.9852C14.5337 72.0252 16.8717 59.6352 17.3309 56.012C17.7285 52.848 18.8457 45.204 18.8457 45.204L20.6713 55.9924C20.3542 57.0118 20.1237 58.0562 19.9825 59.1144C19.7753 61.248 21.3825 71.6892 21.3825 72.7756V74.0412V74.1056C21.5085 74.646 22.7041 76.088 23.3845 77.026C23.8381 77.656 24.7033 78.4568 25.7393 78.5968C26.7361 78.72 27.2401 78.4148 26.5989 77.6728Z" fill="#FFBDA7"/>
<path d="M14.8277 32.3268C14.8277 32.3268 12.8677 35.2276 12.0025 37.7C10.7005 41.4576 11.7673 54.0716 11.7673 54.0716C11.7673 54.0716 14.7689 55.396 19.5373 55.0824C24.3057 54.7688 26.0893 53.6824 26.0893 53.6824C26.0893 53.6824 26.0893 45.596 25.8093 42.054C25.2885 35.1072 24.2021 32.3716 24.2021 32.3716L14.8277 32.3268Z" fill="#CCCCCC"/>
<path d="M14.7101 52.554C13.4529 50.7088 12.9125 43.5744 13.3101 39.7524C13.7077 35.9304 15.3317 34.2 16.6365 34.074C17.3765 34.0021 18.1084 33.8634 18.8233 33.6596L18.8989 32.3464L14.8277 32.3268C14.8277 32.3268 12.8677 35.2276 12.0025 37.7C10.7005 41.4576 11.7673 54.0716 11.7673 54.0716C11.7673 54.0716 14.7689 55.396 19.5373 55.0824C20.4921 55.018 21.3237 54.9228 22.0573 54.8024C19.4001 54.8444 15.9701 54.402 14.7101 52.554Z" fill="#818181"/>
<path d="M16.4825 20.69L13.7749 20.97L13.4333 25.9484L14.8333 32.3156C16.2781 33.9312 22.1945 34.3008 24.2133 32.3576C24.351 31.3127 24.4015 30.2581 24.3645 29.2048C25.7813 28.0204 25.5181 26.1248 25.2213 25.1308C24.5857 22.9804 23.0121 21.5132 22.0545 20.5808L20.2289 20.4352L16.4825 20.69Z" fill="#F0F0F0"/>
<path d="M16.4825 20.69L15.2729 20.8244C15.2729 20.8244 15.5529 21.9948 17.2329 22.958C18.2738 23.5852 19.4673 23.9136 20.6825 23.9072L16.4825 20.69Z" fill="#CCCCCC"/>
<path d="M20.677 23.9072C20.8262 22.7338 20.67 21.5417 20.2234 20.4464L21.4862 20.5472C21.4862 20.5472 22.5698 22.8488 20.677 23.9072Z" fill="#CCCCCC"/>
<path d="M16.0934 33.1108L14.0186 28.5664L14.8278 32.3268C15.1837 32.682 15.6168 32.9502 16.0934 33.1108Z" fill="#E0E0E0"/>
<path d="M22.5782 9.868C23.1774 10.428 23.925 11.6096 23.8662 15.09C23.8158 18.0412 22.9002 18.7748 22.4382 18.9876C21.9762 19.2004 21.0886 19.0772 20.2234 18.9316V20.4464C20.6691 21.542 20.8254 22.7338 20.677 23.9072C18.871 23.2632 17.597 22.0648 16.477 20.69L16.4406 16.77C16.4406 16.77 15.9338 17.2852 15.0686 16.504C14.3518 15.86 14.1082 14.768 14.6598 14.18C14.8029 14.0393 14.9786 13.9362 15.1713 13.8799C15.3639 13.8236 15.5675 13.8159 15.7639 13.8575C15.9602 13.8991 16.1432 13.9887 16.2964 14.1183C16.4497 14.2478 16.5685 14.4133 16.6422 14.6C16.6422 14.6 17.961 14.7008 19.7418 13.6788C21.657 12.5672 22.2002 11.254 22.5782 9.868Z" fill="#FFBDA7"/>
<path d="M20.3324 14.32C20.3351 14.3712 20.3275 14.4224 20.3101 14.4707C20.2928 14.5189 20.266 14.5633 20.2313 14.601C20.1967 14.6388 20.1548 14.6693 20.1082 14.6908C20.0617 14.7123 20.0113 14.7242 19.96 14.726C19.8556 14.7322 19.7529 14.6973 19.6739 14.6288C19.5949 14.5602 19.5458 14.4635 19.5372 14.3592C19.5354 14.3081 19.5436 14.2571 19.5614 14.2092C19.5793 14.1612 19.6064 14.1173 19.6413 14.0798C19.6761 14.0424 19.718 14.0122 19.7645 13.9909C19.8111 13.9697 19.8613 13.9578 19.9124 13.956C19.964 13.9522 20.0157 13.9586 20.0647 13.9749C20.1137 13.9911 20.1591 14.0169 20.1981 14.0507C20.2371 14.0845 20.2691 14.1257 20.2921 14.172C20.3152 14.2182 20.3289 14.2685 20.3324 14.32Z" fill="#263238"/>
<path d="M23.4097 14.2192C23.4116 14.2703 23.4034 14.3213 23.3855 14.3692C23.3677 14.4172 23.3405 14.4611 23.3057 14.4986C23.2709 14.536 23.229 14.5662 23.1824 14.5875C23.1359 14.6087 23.0856 14.6206 23.0345 14.6224C22.9307 14.6293 22.8283 14.595 22.7496 14.5268C22.671 14.4587 22.6224 14.3622 22.6145 14.2584C22.6119 14.207 22.6196 14.1555 22.6371 14.1071C22.6546 14.0587 22.6817 14.0142 22.7166 13.9764C22.7516 13.9386 22.7938 13.9081 22.8407 13.8868C22.8876 13.8655 22.9382 13.8538 22.9897 13.8524C23.0938 13.8462 23.1962 13.8812 23.2748 13.9498C23.3534 14.0184 23.4018 14.1152 23.4097 14.2192Z" fill="#263238"/>
<path d="M20.4528 16.9576L21.2928 17.2376C21.28 17.2942 21.2556 17.3475 21.2212 17.3942C21.1868 17.441 21.1432 17.4801 21.093 17.5093C21.0429 17.5384 20.9872 17.557 20.9296 17.5637C20.872 17.5704 20.8136 17.5652 20.758 17.5484C20.6405 17.5086 20.5431 17.4248 20.4861 17.3146C20.4292 17.2044 20.4173 17.0764 20.4528 16.9576Z" fill="#F0997A"/>
<path d="M23.6197 12.9816L22.8945 12.4636C22.9233 12.4135 22.9622 12.37 23.0088 12.3358C23.0554 12.3016 23.1086 12.2776 23.165 12.2652C23.2214 12.2528 23.2798 12.2524 23.3364 12.2639C23.393 12.2754 23.4466 12.2986 23.4937 12.332C23.5906 12.4061 23.6569 12.5132 23.6801 12.6329C23.7033 12.7526 23.6818 12.8767 23.6197 12.9816Z" fill="#263238"/>
<path d="M16.6476 14.2388V15.4876C16.7274 15.4888 16.8065 15.4738 16.8803 15.4436C16.9541 15.4133 17.021 15.3685 17.0769 15.3117C17.1329 15.255 17.1768 15.1874 17.206 15.1133C17.2352 15.0391 17.2491 14.9597 17.2468 14.88C17.2465 14.7172 17.1846 14.5605 17.0734 14.4416C16.9622 14.3226 16.8101 14.2502 16.6476 14.2388Z" fill="#37474F"/>
<path d="M21.4946 13.7852L21.4862 16.2044L22.6146 15.8348L21.4946 13.7852Z" fill="#F0997A"/>
<path d="M20.2234 18.9316C19.3106 18.8112 17.4234 18.2624 17.1434 17.4924C17.2608 17.8778 17.491 18.2191 17.8042 18.4724C18.3642 18.968 20.229 19.542 20.229 19.542L20.2234 18.9316Z" fill="#F0997A"/>
<path d="M1.63137 15.4988C1.54457 16.5208 1.17497 24.5568 1.20857 25.2512C1.28417 26.766 1.07977 28.4768 3.51297 28.0512C5.61017 27.6928 13.4334 25.9512 13.4334 25.9512C13.4334 25.9512 14.2202 25.3296 14.601 23.8988C15.217 21.5832 14.4302 20.9028 14.4302 20.9028C13.2038 20.97 12.6046 20.998 11.6302 21.3396C10.1994 21.838 9.42937 22.0648 7.68217 22.6696C5.93497 23.2744 4.79817 23.6832 4.79817 23.6832L4.36977 15.7732" fill="#FFBDA7"/>
<path d="M1.57533 16.3668C1.62475 15.9478 1.52567 15.5247 1.29533 15.1712C1.02968 14.8727 0.870201 14.4946 0.841733 14.096C0.718533 13.4016 0.645733 12.8248 0.645733 12.8248C0.645733 12.8248 0.570133 12.1724 0.836133 11.9232C0.907513 11.8423 1.00664 11.7911 1.11395 11.7797C1.22126 11.7683 1.32894 11.7975 1.41573 11.8616C1.36414 11.7424 1.35432 11.6092 1.38786 11.4837C1.4214 11.3582 1.49634 11.2476 1.60053 11.17C1.71204 11.0997 1.84479 11.071 1.97539 11.0889C2.106 11.1068 2.22609 11.1703 2.31453 11.268C2.31453 11.268 2.12133 10.6688 2.62253 10.4476C2.7465 10.3797 2.89215 10.3631 3.02824 10.4013C3.16433 10.4395 3.28003 10.5295 3.35053 10.652C3.31236 10.4873 3.34021 10.3141 3.42814 10.1697C3.51606 10.0252 3.65706 9.92098 3.82093 9.87923C4.15133 9.76723 4.50973 9.92123 4.86253 10.9992C5.13751 11.0725 5.38365 11.2278 5.56813 11.4444C5.79187 12.103 5.94487 12.7835 6.02453 13.4744C6.06933 13.8412 5.77813 14.4712 5.31053 14.936C4.88773 15.3588 4.36133 15.8236 4.41453 17.0948L1.57533 16.3668Z" fill="#FFBDA7"/>
<path d="M4.87101 10.9852C4.61138 10.9123 4.34643 10.8599 4.07861 10.8284C3.93301 10.8088 3.27221 11.4892 3.08741 11.6348C2.90261 11.7804 3.08741 12.3488 3.67541 12.276C4.26341 12.2032 4.42021 12.1612 4.42021 12.1612C4.46253 12.2489 4.53101 12.3213 4.61621 12.3684C4.61621 12.3684 2.93621 13.2084 2.59741 14.8128C2.87766 14.2584 3.25728 13.7601 3.71741 13.3428C4.08872 13.0238 4.50835 12.7658 4.96061 12.5784C4.96061 12.5784 4.46501 12.2228 4.44541 11.996C4.1725 12.0804 3.89052 12.1321 3.60541 12.15C3.50738 12.1562 3.41012 12.1292 3.32934 12.0733C3.24856 12.0174 3.18898 11.9359 3.16021 11.842C3.12101 11.716 4.06181 10.89 4.06181 10.89L4.87101 10.9852Z" fill="#F28F8F"/>
<path d="M3.16013 13.06C3.20939 13.1135 3.27389 13.1507 3.34493 13.1664C3.50453 13.1944 3.57173 13.0488 3.62493 12.9284C3.71395 12.7271 3.7487 12.5061 3.72573 12.2872C3.72156 12.2697 3.72156 12.2515 3.72573 12.234C3.72713 12.2253 3.73106 12.2172 3.73704 12.2107C3.74302 12.2043 3.75077 12.1997 3.75933 12.1976C3.78733 12.1976 3.80973 12.2172 3.82373 12.2424C3.87065 12.3387 3.90906 12.439 3.93853 12.542C3.95966 12.5948 3.98895 12.6439 4.02533 12.6876C4.06453 12.7324 4.11493 12.7436 4.15693 12.78C4.19893 12.8164 4.18773 12.9396 4.09253 12.9172C4.02351 12.9004 3.96109 12.8634 3.91333 12.8108C3.82653 13.2588 3.45693 13.522 3.11813 13.27C3.11813 13.6032 3.05653 13.9196 2.63653 13.9196C2.54269 13.9276 2.4484 13.9106 2.3633 13.8703C2.27819 13.8299 2.20532 13.7677 2.15213 13.69C2.15685 13.7808 2.135 13.871 2.08925 13.9496C2.0435 14.0282 1.97583 14.0917 1.89453 14.1324C1.80418 14.1811 1.69938 14.1957 1.59918 14.1736C1.49898 14.1515 1.41004 14.0941 1.34853 14.012C1.32614 13.9762 1.30649 13.9388 1.28973 13.9C1.28851 13.8935 1.28851 13.8869 1.28973 13.8804L1.33733 13.9252C1.39021 13.9819 1.45602 14.025 1.52914 14.0509C1.60226 14.0767 1.68055 14.0845 1.75733 14.0736C1.80876 14.0444 1.85304 14.0042 1.88695 13.9557C1.92086 13.9073 1.94353 13.8519 1.95333 13.7936C1.98393 13.6082 1.98393 13.419 1.95333 13.2336C1.95097 13.2273 1.95097 13.2203 1.95333 13.214C1.95333 13.1972 1.98693 13.214 2.00093 13.214C2.07373 13.2952 2.12133 13.396 2.18853 13.494C2.23108 13.5517 2.28685 13.5983 2.35117 13.63C2.41548 13.6617 2.48645 13.6775 2.55813 13.676C2.85773 13.676 2.93333 13.3064 2.92773 13.0656C2.92773 12.9872 2.92773 12.906 2.92773 12.8276C2.92773 12.8276 2.92773 12.7996 2.94453 12.8024C2.98529 12.8352 3.01868 12.8762 3.04253 12.9228C3.07548 12.9735 3.11503 13.0197 3.16013 13.06Z" fill="#F28F8F"/>
<path d="M59.9133 14.6224C60.421 14.6777 60.9116 14.8379 61.3541 15.0929C61.7966 15.3479 62.1813 15.6921 62.4837 16.1036C63.3993 17.3216 66.9273 27.1244 66.9273 27.1244H63.4413L59.3981 18.9848L59.9133 14.6224Z" fill="#FFA8A7"/>
<path d="M59.7734 14.6224C60.479 14.5916 61.8846 14.9024 62.6686 16.0224C63.4526 17.1424 65.687 23.4004 65.687 23.4004C65.687 23.4004 64.805 25.0496 62.1646 24.848L60.0478 21.096L59.7734 14.6224Z" fill="#CCCCCC"/>
<path d="M49.4386 69.5136C49.3154 70.2089 49.249 70.9131 49.2398 71.6192C49.2146 72.8988 48.9794 73.3552 48.9598 74.4052C48.9234 75.6036 49.1306 76.0516 49.6178 76.7264C50.105 77.4012 51.3818 78.0144 51.9222 76.8748C52.4626 75.7352 52.3926 74.9876 52.2218 73.7948C52.051 72.602 52.0202 71.9076 51.9166 70.978C51.8242 70.1604 51.715 69.5388 51.715 69.5388L49.4386 69.5136Z" fill="#263238"/>
<path d="M53.0703 59.4532L48.8563 59.3748C48.9207 62.1748 49.3659 66.8732 49.4387 69.5136C49.4527 70.0092 49.4387 73.3748 49.6151 74.3968C49.8951 75.9312 51.7179 75.724 51.8159 74.8056C51.9139 73.8872 51.6983 69.9588 51.7039 69.5528C51.6871 67.8728 52.4823 63.4432 52.8967 60.4024C52.9191 60.254 53.0507 59.5988 53.0703 59.4532Z" fill="#FFA8A7"/>
<path d="M59.2665 67.324C59.2665 67.324 59.0481 67.324 59.0145 67.5144C58.9809 67.7048 58.9641 68.0576 58.8745 68.4048C58.7307 68.9524 58.6805 69.5204 58.7261 70.0848C58.7989 70.4768 59.6949 71.062 60.3081 71.1656C60.9213 71.2692 61.7865 71.874 62.2681 72.3276C63.039 72.9658 63.9934 73.3414 64.9925 73.4C66.0173 73.4 66.7285 73.0584 67.0673 72.5096C67.4061 71.9608 66.7593 71.8964 65.5889 71.1348L64.6817 70.5468C62.8281 69.3344 62.1477 68.6876 61.6241 67.4668L59.2665 67.324Z" fill="#263238"/>
<path d="M61.6381 66.68C61.6073 65.8064 62.0553 59.4 62.0553 59.4L58.4293 59.8088C59.2861 64.9244 59.3561 66.6688 59.2693 67.4136C59.2509 67.4829 59.2434 67.5547 59.2469 67.6264C59.2469 68.6204 60.3669 69.158 61.2461 69.8188C61.5933 70.082 62.4809 70.8884 63.5225 71.2412C64.1945 71.4708 65.4405 71.5576 65.6001 71.1488C64.5361 70.3368 63.0801 69.2728 62.2401 68.3488C61.8229 67.8756 61.6801 67.5368 61.6381 66.68Z" fill="#FFA8A7"/>
<path d="M49.9593 30.5432C48.6713 36.1936 49.9061 49.7176 49.9061 49.7176C49.8473 50.4176 49.0437 51.798 48.7469 54.8836C48.3941 58.5236 49.3965 68.2872 49.3965 68.2872C49.3965 68.2872 50.3597 69.0068 51.7569 68.3376C51.7569 68.3376 54.3077 53.9988 54.7669 50.3728C55.1645 47.2116 56.2817 39.5676 56.2817 39.5676L58.1073 50.356C57.7887 51.375 57.5582 52.4195 57.4185 53.478C57.2113 55.6116 59.2861 66.3104 59.2861 66.3104C59.2861 66.3104 60.2577 66.8228 61.6381 66.2656C61.6381 66.2656 62.5593 52.442 62.7581 49.8744C63.0185 46.4332 62.3157 35.7512 61.9685 30.7448L49.9593 30.5432Z" fill="#818181"/>
<path opacity="0.6" d="M56.2818 39.5676L56.7494 36.3476C56.7494 36.3476 59.4682 35.9864 60.7002 34.8272C60.3479 35.3794 59.8782 35.8471 59.3246 36.197C58.7709 36.5469 58.1469 36.7704 57.497 36.8516L57.0154 39.7636L57.9254 49.2836L56.2818 39.5676Z" fill="#263238"/>
<path d="M61.2743 24.0416C61.4395 25.5704 62.0555 31.2264 62.0555 31.2264C57.0155 33.92 50.7407 32.1336 49.7803 31.0248C50.3281 29.1577 51.1288 27.3743 52.1603 25.7244L51.3763 22.2048C51.3763 22.2048 53.3363 19.094 51.1691 15.006L54.2127 14.6784L57.9955 14.5552L59.9023 14.6224C60.5043 15.1824 61.2379 16.8148 61.8623 18.3884C62.2627 19.4048 62.6911 21.04 61.2743 24.0416Z" fill="#F0F0F0"/>
<path d="M51.7599 23.882C51.8047 24.0584 53.0731 25.7412 53.6527 26.122C54.2323 26.5028 52.6251 27.0012 52.3983 27.914C51.9391 29.7648 54.8007 32.114 58.3539 32.464C54.3359 33.122 50.5139 31.8844 49.7803 31.036C50.3259 29.1646 51.1267 27.3772 52.1603 25.7244L51.7599 23.882Z" fill="#E0E0E0"/>
<path d="M51.0961 15.258C50.0392 15.8258 49.2294 16.7642 48.8225 17.8928C48.1169 19.9396 46.2381 25.226 45.5157 27.1328H48.9877L51.3873 22.2132C51.9221 20.1664 51.9277 16.3388 51.0961 15.258Z" fill="#FFA8A7"/>
<path d="M51.1802 15.006C49.5198 15.3336 48.9402 16.8792 48.271 18.6908C47.5542 20.6508 46.5406 23.2968 46.5406 23.2968C46.5406 23.2968 47.4786 25.2736 50.3178 24.778L51.8802 21.2472C52.2825 20.2289 52.4291 19.1275 52.3071 18.0395C52.185 16.9514 51.7981 15.9098 51.1802 15.006Z" fill="#CCCCCC"/>
<path d="M57.3121 12.4216H56.0241C55.3205 12.422 54.6239 12.2837 53.9738 12.0146C53.3238 11.7456 52.7332 11.351 52.2357 10.8536C51.7382 10.3561 51.3437 9.76548 51.0746 9.11545C50.8056 8.46541 50.6673 7.76872 50.6677 7.0652C50.6677 5.4738 51.2998 3.94757 52.4251 2.82228C53.5504 1.69699 55.0767 1.0648 56.6681 1.0648C58.2592 1.06555 59.785 1.69797 60.9102 2.8231C62.0353 3.94823 62.6677 5.47403 62.6685 7.0652C62.6688 7.76872 62.5305 8.46541 62.2615 9.11545C61.9924 9.76548 61.5979 10.3561 61.1004 10.8536C60.603 11.351 60.0123 11.7456 59.3623 12.0146C58.7123 12.2837 58.0156 12.422 57.3121 12.4216Z" fill="#263238"/>
<path d="M47.2435 15.4008C48.3057 15.4008 49.3244 14.979 50.0757 14.2282C50.8271 13.4774 51.2495 12.459 51.2503 11.3968V4.48639C50.1881 4.48639 49.1694 4.90815 48.418 5.65896C47.6667 6.40978 47.2442 7.42821 47.2435 8.49039V15.4008Z" fill="#263238"/>
<path d="M60.325 3.87601C60.9606 4.25121 61.7418 5.83601 61.6662 9.196C61.599 12.0296 60.6834 12.7296 60.2214 12.9312C59.7594 13.1328 58.8718 13.0096 58.0066 12.8668V14.5664C57.953 14.9252 57.7598 15.2483 57.469 15.4652C56.7662 15.9048 55.9318 15.7452 55.4642 15.5688C54.431 15.1964 54.2238 14.6896 54.2238 14.6896L54.2434 10.7696C54.2434 10.7696 53.7338 11.2624 52.8714 10.5092C52.1602 9.88761 51.9194 8.82921 52.4766 8.26921C52.6204 8.1352 52.794 8.03727 52.983 7.9835C53.1721 7.92973 53.3712 7.92165 53.564 7.95994C53.7567 7.99822 53.9377 8.08177 54.0918 8.20369C54.246 8.32561 54.369 8.48243 54.4506 8.66121C54.4506 8.66121 54.9574 8.70321 55.4642 7.76241C55.4642 7.76801 57.8666 6.00961 60.325 3.87601Z" fill="#FFA8A7"/>
<path d="M58.222 8.21601C58.2225 8.28561 58.2025 8.3538 58.1646 8.41214C58.1266 8.47048 58.0724 8.51641 58.0086 8.54423C57.9448 8.57205 57.8743 8.58054 57.8057 8.56865C57.7371 8.55676 57.6736 8.52501 57.6229 8.47734C57.5722 8.42966 57.5366 8.36816 57.5205 8.30046C57.5044 8.23275 57.5085 8.16181 57.5324 8.09643C57.5562 8.03105 57.5987 7.9741 57.6546 7.93265C57.7105 7.8912 57.7774 7.86705 57.8469 7.86322C57.9432 7.86094 58.0366 7.89667 58.1068 7.96269C58.177 8.02871 58.2184 8.11971 58.222 8.21601Z" fill="#263238"/>
<path d="M58.6001 10.876L59.4401 11.1392C59.4257 11.1972 59.3992 11.2516 59.3624 11.2987C59.3255 11.3458 59.2792 11.3846 59.2264 11.4126C59.1735 11.4406 59.1154 11.4572 59.0557 11.4612C58.9961 11.4652 58.9362 11.4567 58.8801 11.436C58.7708 11.396 58.681 11.3157 58.6289 11.2116C58.5769 11.1075 58.5666 10.9875 58.6001 10.876Z" fill="#F28F8F"/>
<path d="M61.2265 7.18839L60.5068 6.68719C60.5369 6.63881 60.5765 6.59705 60.6232 6.56445C60.6699 6.53185 60.7228 6.5091 60.7786 6.49758C60.8344 6.48605 60.8919 6.486 60.9478 6.49742C61.0036 6.50883 61.0565 6.53149 61.1033 6.56399C61.1994 6.63288 61.2656 6.7358 61.2885 6.8518C61.3114 6.9678 61.2892 7.08817 61.2265 7.18839Z" fill="#263238"/>
<path d="M57.9366 6.9252L57.119 7.2416C57.0963 7.18955 57.0844 7.13344 57.0841 7.07667C57.0837 7.0199 57.0948 6.96365 57.1168 6.91131C57.1388 6.85896 57.1712 6.81162 57.212 6.77214C57.2527 6.73266 57.3011 6.70186 57.3542 6.6816C57.464 6.64005 57.5855 6.64214 57.6939 6.68745C57.8022 6.73276 57.889 6.81783 57.9366 6.9252Z" fill="#263238"/>
<path d="M61.0307 8.21601C61.0311 8.28561 61.0111 8.3538 60.9732 8.41214C60.9352 8.47048 60.881 8.51641 60.8172 8.54423C60.7534 8.57205 60.6829 8.58054 60.6143 8.56865C60.5457 8.55676 60.4822 8.52501 60.4315 8.47734C60.3808 8.42966 60.3452 8.36816 60.3291 8.30046C60.313 8.23275 60.3171 8.16181 60.341 8.09643C60.3648 8.03105 60.4073 7.9741 60.4632 7.93265C60.5191 7.8912 60.586 7.86705 60.6555 7.86322C60.7518 7.86094 60.8452 7.89667 60.9154 7.96269C60.9856 8.02871 61.027 8.11971 61.0307 8.21601Z" fill="#263238"/>
<path d="M59.3196 8.01161L59.3784 10.1564L60.5068 9.80641L59.3196 8.01161Z" fill="#F28F8F"/>
<path d="M58.0065 12.8556C57.0965 12.7352 55.2233 12.1976 54.9265 11.4556C55.0442 11.8308 55.2738 12.161 55.5845 12.402C56.1445 12.8808 58.0037 13.4212 58.0037 13.4212L58.0065 12.8556Z" fill="#F28F8F"/>
<path d="M50.9504 4.66559L50.8132 3.09199C50.9159 3.07753 51.0204 3.0841 51.1204 3.11128C51.2204 3.13847 51.3138 3.18571 51.395 3.25014C51.4762 3.31457 51.5435 3.39483 51.5927 3.48606C51.6419 3.57728 51.672 3.67756 51.6812 3.78079C51.6944 3.99346 51.6262 4.20316 51.4905 4.36744C51.3548 4.53172 51.1617 4.6383 50.9504 4.66559Z" fill="#263238"/>
<path d="M50.8945 5.08001L49.6205 4.1476C49.6776 4.06093 49.7516 3.98673 49.8381 3.92948C49.9247 3.87224 50.0219 3.83314 50.124 3.81456C50.2261 3.79598 50.3309 3.79829 50.432 3.82137C50.5332 3.84444 50.6286 3.88779 50.7126 3.9488C50.8804 4.07931 50.9926 4.26862 51.0263 4.47856C51.0601 4.6885 51.013 4.90343 50.8945 5.08001Z" fill="#263238"/>
<path d="M54.4504 8.66679V10.1564C54.7193 10.1564 54.9771 10.0496 55.1672 9.85951C55.3573 9.66942 55.4641 9.41161 55.4641 9.14279V7.76799L54.4504 8.66679Z" fill="#263238"/>
<path d="M76.9736 27.1244H41.3716V51.1764H76.9736V27.1244Z" fill="#CCCCCC"/>
<path opacity="0.5" d="M76.9736 27.1244H41.3716V51.1764H76.9736V27.1244Z" fill="#455A64"/>
<path d="M67.8071 38.96C67.8071 43.4263 64.1864 47.047 59.7201 47.047C55.2537 47.047 51.6331 43.4263 51.6331 38.96C51.6331 34.4937 55.2537 30.873 59.7201 30.873C64.1864 30.873 67.8071 34.4937 67.8071 38.96Z" stroke="#455A64" stroke-width="0.626"/>
<ellipse cx="59.7201" cy="38.96" rx="5.87999" ry="5.88" fill="#455A64"/>
<path d="M77.1137 51.3164H41.2401V26.9844H77.1137V51.3164ZM41.5117 51.0364H76.8337V27.2644H41.5201L41.5117 51.0364Z" fill="white"/>
<path d="M41.2402 27.83C41.061 28.3312 40.6662 28.5692 40.3694 29.0732C40.0726 29.5772 39.9578 31.0696 40.2854 31.694C40.5359 32.1311 40.8881 32.5013 41.3122 32.7733C41.7362 33.0453 42.2196 33.211 42.7214 33.2564C43.1428 33.2737 43.5591 33.1581 43.9114 32.926C44.0683 32.8132 44.2063 32.6762 44.3202 32.52C44.4308 32.3522 44.514 32.1679 44.5666 31.974C44.5712 31.958 44.5798 31.9436 44.5918 31.932C44.6065 31.9214 44.6241 31.9156 44.6422 31.9152C44.7697 31.8979 44.8899 31.8456 44.9894 31.764C45.0382 31.722 45.0774 31.67 45.1045 31.6116C45.1315 31.5531 45.1457 31.4896 45.1462 31.4252C45.1366 31.3433 45.1075 31.2648 45.0612 31.1966C45.0149 31.1284 44.9528 31.0723 44.8802 31.0332C44.7342 30.9551 44.579 30.8958 44.4182 30.8568C44.0318 30.7336 43.6734 30.5376 43.2982 30.392C42.537 30.1225 41.8373 29.7036 41.2402 29.16V27.83Z" fill="#FFA8A7"/>
<path d="M71.7406 25.7552C70.1082 26.0212 69.6406 26.9844 69.6406 26.9844H70.9734C70.9734 26.9844 71.1414 27.4324 70.6934 29.1124C70.5366 29.7004 71.4074 29.7172 71.4354 29.496C71.5922 29.86 72.7374 30.364 73.5942 29.7956C74.3782 29.2748 74.731 28.4796 74.5546 26.9956C74.255 25.3128 72.0402 25.7076 71.7406 25.7552Z" fill="#FFA8A7"/>
</svg>
